<svg xmlns="http://www.w3.org/2000/svg" width="580" height="300" viewBox="0 0 580 300" role="img" aria-labelledby="title desc"><title id="title">NETPOS — Cloud POS for cafes, restaurants and shops with an offline-first terminal</title><desc id="desc">PowerNet LLC · Production. Offline-first PWA with idempotent sync · PostgreSQL row-level security · Argon2id, TOTP MFA, token rotation</desc><defs><path id="g400_130" d="M471 26Q365 26 278 -14Q192 -54 141 -131Q90 -208 90 -318Q90 -414 128 -474Q166 -534 230 -568Q293 -603 370 -620Q447 -637 525 -647Q625 -660 688 -667Q751 -674 782 -691Q812 -708 812 -749V-755Q812 -825 786 -874Q760 -922 708 -948Q656 -974 578 -974Q498 -974 441 -949Q384 -924 348 -886Q313 -849 295 -810L122 -867Q165 -969 238 -1026Q311 -1084 399 -1108Q487 -1132 573 -1132Q629 -1132 700 -1118Q772 -1105 838 -1065Q905 -1025 948 -946Q992 -868 992 -737V0H815V-152H803Q784 -113 742 -72Q700 -30 633 -2Q566 26 471 26ZM502 -133Q602 -133 671 -172Q740 -211 776 -274Q812 -336 812 -404V-559Q801 -546 764 -536Q727 -525 680 -517Q632 -509 588 -504Q543 -498 517 -495Q452 -487 396 -468Q339 -448 305 -410Q271 -373 271 -309Q271 -251 301 -212Q331 -173 383 -153Q435 -133 502 -133Z"/><path id="g400_146" d="M613 24Q461 24 346 -48Q232 -120 168 -250Q104 -380 104 -552Q104 -727 168 -858Q232 -988 346 -1060Q461 -1132 613 -1132Q694 -1132 766 -1111Q838 -1090 898 -1050Q957 -1011 1000 -954Q1043 -896 1066 -823L893 -774Q881 -817 856 -853Q831 -889 796 -916Q760 -942 714 -956Q668 -971 613 -971Q501 -971 429 -912Q357 -854 322 -759Q287 -664 287 -552Q287 -442 322 -348Q357 -253 429 -195Q501 -137 613 -137Q669 -137 716 -152Q763 -167 800 -194Q836 -222 861 -260Q886 -298 898 -343L1070 -294Q1048 -219 1004 -160Q961 -102 901 -60Q841 -19 768 2Q695 24 613 24Z"/><path id="g400_149" d="M577 24Q438 24 331 -47Q224 -118 164 -248Q104 -378 104 -556Q104 -733 164 -862Q225 -992 332 -1062Q439 -1132 578 -1132Q687 -1132 751 -1096Q815 -1060 850 -1014Q884 -969 902 -939H916V-1490H1096V0H922V-173H902Q884 -142 848 -96Q813 -49 748 -12Q684 24 577 24ZM604 -137Q706 -137 776 -190Q846 -244 882 -339Q918 -434 918 -558Q918 -682 882 -774Q847 -867 777 -919Q707 -971 604 -971Q498 -971 428 -916Q357 -861 322 -768Q287 -674 287 -558Q287 -441 322 -346Q358 -250 429 -194Q500 -137 604 -137Z"/><path id="g400_151" d="M628 24Q466 24 348 -48Q231 -120 168 -249Q104 -378 104 -550Q104 -722 166 -853Q228 -984 342 -1058Q455 -1132 607 -1132Q696 -1132 782 -1102Q869 -1073 940 -1008Q1010 -942 1052 -835Q1094 -728 1094 -573V-498H286Q290 -390 329 -312Q372 -225 450 -180Q527 -136 629 -136Q695 -136 749 -155Q803 -174 842 -212Q881 -251 902 -308L1076 -260Q1050 -176 988 -112Q926 -48 834 -12Q743 24 628 24ZM287 -650H911Q904 -726 879 -790Q844 -875 776 -924Q708 -972 607 -972Q506 -972 434 -922Q362 -873 324 -794Q292 -726 287 -650Z"/><path id="g400_160" d="M678 -1118V-964H420V0H240V-964H20V-1118H240V-1267Q240 -1364 286 -1429Q331 -1494 404 -1527Q477 -1560 558 -1560Q622 -1560 664 -1550Q706 -1539 726 -1530L676 -1376Q662 -1381 640 -1387Q617 -1393 579 -1393Q496 -1393 458 -1350Q420 -1308 420 -1227V-1118Z"/><path id="g400_164" d="M338 -670V0H158V-1490H338V-925Q384 -1020 453 -1067Q547 -1132 674 -1132Q787 -1132 872 -1086Q958 -1039 1006 -946Q1053 -852 1053 -710V0H872V-695Q872 -824 804 -897Q737 -970 620 -970Q540 -970 476 -935Q412 -900 375 -833Q338 -766 338 -670Z"/><path id="g400_167" d="M158 0V-1118H338V0ZM249 -1301Q198 -1301 161 -1336Q124 -1371 124 -1420Q124 -1470 161 -1504Q198 -1539 249 -1539Q301 -1539 338 -1504Q375 -1470 375 -1420Q375 -1371 338 -1336Q301 -1301 249 -1301Z"/><path id="g400_18" d="M783 20Q592 20 442 -72Q293 -165 208 -336Q122 -508 122 -744Q122 -981 208 -1152Q293 -1324 442 -1417Q592 -1510 783 -1510Q896 -1510 996 -1477Q1097 -1444 1177 -1380Q1257 -1317 1310 -1226Q1364 -1136 1384 -1021H1194Q1178 -1098 1140 -1156Q1101 -1214 1046 -1254Q990 -1294 923 -1314Q856 -1334 783 -1334Q649 -1334 541 -1266Q433 -1198 370 -1066Q307 -935 307 -744Q307 -554 370 -422Q434 -291 542 -224Q650 -156 783 -156Q856 -156 923 -176Q990 -197 1046 -236Q1101 -276 1140 -334Q1178 -393 1194 -469H1384Q1365 -355 1312 -265Q1258 -175 1178 -111Q1098 -47 998 -14Q897 20 783 20Z"/><path id="g400_183" d="M338 -1490V0H158V-1490Z"/><path id="g400_187" d="M158 0V-1118H333L334 -913Q356 -975 393 -1019Q442 -1078 508 -1108Q575 -1138 647 -1138Q769 -1138 845 -1063Q906 -1002 932 -911Q953 -967 991 -1011Q1044 -1072 1120 -1105Q1195 -1138 1284 -1138Q1381 -1138 1461 -1096Q1541 -1054 1588 -969Q1636 -884 1636 -754V0H1456V-749Q1456 -870 1388 -922Q1320 -974 1230 -974Q1155 -974 1100 -942Q1046 -911 1016 -856Q987 -801 987 -730V0H807V-767Q807 -860 745 -917Q683 -974 588 -974Q523 -974 466 -944Q408 -913 373 -853Q338 -793 338 -704V0Z"/><path id="g400_190" d="M338 -670V0H158V-1118H331L332 -911Q379 -1016 453 -1067Q547 -1132 674 -1132Q787 -1132 872 -1086Q957 -1039 1004 -946Q1052 -852 1052 -710V0H872V-695Q872 -824 804 -897Q737 -970 620 -970Q540 -970 476 -935Q412 -900 375 -833Q338 -766 338 -670Z"/><path id="g400_195" d="M613 24Q461 24 346 -48Q232 -120 168 -250Q104 -380 104 -552Q104 -727 168 -858Q232 -988 346 -1060Q461 -1132 613 -1132Q766 -1132 881 -1060Q996 -988 1060 -858Q1124 -727 1124 -552Q1124 -380 1060 -250Q996 -120 881 -48Q766 24 613 24ZM613 -137Q726 -137 799 -195Q872 -253 907 -348Q942 -442 942 -552Q942 -663 907 -758Q872 -854 799 -912Q726 -971 613 -971Q501 -971 429 -912Q357 -854 322 -759Q287 -664 287 -552Q287 -442 322 -348Q357 -253 429 -195Q501 -137 613 -137Z"/><path id="g400_207" d="M158 418V-1118H332V-939H352Q371 -969 405 -1014Q439 -1060 503 -1096Q567 -1132 676 -1132Q816 -1132 922 -1062Q1029 -992 1090 -862Q1150 -733 1150 -556Q1150 -378 1090 -248Q1030 -118 924 -47Q817 24 677 24Q571 24 506 -12Q441 -49 406 -96Q371 -142 352 -173H338V418ZM650 -137Q755 -137 826 -194Q896 -250 932 -346Q967 -441 967 -558Q967 -674 932 -768Q897 -861 826 -916Q756 -971 650 -971Q547 -971 477 -919Q407 -867 372 -774Q336 -682 336 -558Q336 -434 372 -339Q408 -244 478 -190Q549 -137 650 -137Z"/><path id="g400_210" d="M158 0V-1118H332V-946H344Q375 -1031 454 -1082Q534 -1134 634 -1134Q654 -1134 682 -1133Q709 -1132 725 -1131V-950Q717 -952 685 -956Q653 -960 617 -960Q537 -960 474 -926Q410 -893 374 -834Q338 -776 338 -700V0Z"/><path id="g400_213" d="M538 24Q423 24 334 -10Q244 -43 186 -109Q128 -175 108 -271L279 -312Q303 -220 370 -177Q436 -134 536 -134Q653 -134 722 -184Q792 -234 792 -303Q792 -361 752 -400Q711 -438 628 -457L442 -501Q290 -537 216 -612Q142 -688 142 -806Q142 -902 196 -976Q250 -1049 344 -1090Q437 -1132 556 -1132Q671 -1132 752 -1098Q832 -1063 882 -1002Q933 -942 958 -863L795 -821Q772 -881 718 -930Q665 -979 557 -979Q457 -979 390 -933Q324 -887 324 -817Q324 -755 369 -718Q414 -680 512 -657L681 -617Q833 -581 906 -506Q979 -430 979 -315Q979 -217 924 -140Q868 -64 768 -20Q669 24 538 24Z"/><path id="g400_217" d="M598 -1118V-964H368V-290Q368 -215 398 -180Q429 -146 500 -146Q517 -146 544 -150Q570 -154 592 -158L629 -6Q601 4 566 9Q530 14 495 14Q350 14 269 -62Q188 -139 188 -276V-964H20V-1118H188V-1384H368V-1118Z"/><path id="g400_220" d="M537 14Q424 14 338 -32Q253 -79 206 -173Q158 -267 158 -408V-1118H338V-423Q338 -294 406 -221Q474 -148 591 -148Q671 -148 734 -183Q798 -218 835 -286Q872 -353 872 -448V-1118H1053V0H879V-209Q831 -100 756 -50Q660 14 537 14Z"/><path id="g400_233" d="M409 0 70 -1118H261L397 -630Q425 -530 457 -404Q481 -308 505 -194Q527 -303 550 -397Q581 -524 610 -630L744 -1118H936L1068 -630Q1096 -527 1127 -401Q1149 -306 1172 -196Q1195 -305 1219 -399Q1250 -525 1279 -630L1415 -1118H1606L1267 0H1088L943 -506Q921 -583 900 -663Q879 -743 859 -827Q849 -870 838 -914Q828 -871 818 -828Q797 -743 776 -662Q755 -581 733 -506L588 0Z"/><path id="g400_344" d="M798 -719V-553H144V-719Z"/><path id="g400_362" d="M128 359 216 -208H422L266 359Z"/><path id="g400_66" d="M784 20Q593 20 444 -72Q294 -165 208 -336Q122 -508 122 -744Q122 -981 208 -1152Q294 -1324 444 -1417Q593 -1510 784 -1510Q975 -1510 1124 -1417Q1273 -1324 1358 -1152Q1444 -981 1444 -744Q1444 -508 1358 -336Q1273 -165 1124 -72Q975 20 784 20ZM784 -156Q917 -156 1024 -224Q1132 -291 1196 -422Q1259 -554 1259 -744Q1259 -936 1196 -1068Q1132 -1199 1024 -1266Q917 -1334 784 -1334Q650 -1334 542 -1266Q434 -1198 370 -1066Q307 -935 307 -744Q307 -554 370 -423Q434 -292 542 -224Q650 -156 784 -156Z"/><path id="g400_84" d="M180 0V-1490H690Q864 -1490 976 -1426Q1089 -1363 1144 -1256Q1198 -1149 1198 -1016Q1198 -883 1144 -775Q1089 -667 977 -603Q865 -539 691 -539H370V0ZM370 -706H682Q800 -706 872 -746Q944 -787 976 -858Q1009 -928 1009 -1016Q1009 -1104 976 -1174Q944 -1243 872 -1283Q799 -1323 680 -1323H370Z"/><path id="g400_90" d="M657 26Q496 26 378 -26Q259 -78 192 -172Q125 -265 116 -390H311Q319 -306 368 -252Q417 -197 494 -170Q570 -144 657 -144Q758 -144 838 -177Q919 -210 966 -270Q1013 -330 1013 -409Q1013 -481 972 -526Q932 -571 865 -600Q798 -629 718 -651L538 -702Q358 -753 258 -848Q158 -943 158 -1091Q158 -1217 226 -1312Q294 -1406 410 -1458Q526 -1510 670 -1510Q817 -1510 930 -1458Q1043 -1406 1108 -1316Q1174 -1227 1178 -1114H992Q979 -1223 888 -1282Q797 -1342 664 -1342Q568 -1342 496 -1310Q423 -1279 383 -1224Q343 -1170 343 -1100Q343 -1022 392 -974Q440 -927 506 -900Q573 -874 627 -859L776 -818Q836 -802 908 -774Q981 -746 1047 -700Q1113 -653 1156 -582Q1198 -510 1198 -406Q1198 -284 1134 -186Q1071 -88 950 -31Q829 26 657 26Z"/><path id="g500_112" d="M455 0 51 -1490H291L506 -636Q526 -557 543 -472Q560 -387 577 -300Q584 -260 591 -219Q599 -260 607 -300Q624 -387 642 -472Q660 -557 681 -636L902 -1490H1152L1371 -636Q1392 -557 1410 -472Q1428 -387 1446 -300Q1453 -261 1461 -223L1475 -300Q1491 -387 1510 -472Q1528 -557 1546 -636L1761 -1490H2003L1597 0H1334L1097 -883Q1070 -987 1047 -1109Q1036 -1166 1025 -1227Q1016 -1171 1007 -1118Q986 -999 955 -883L719 0Z"/><path id="g500_130" d="M461 25Q355 25 269 -14Q183 -54 133 -130Q83 -206 83 -316Q83 -411 120 -472Q156 -533 218 -569Q281 -605 358 -623Q434 -641 513 -650Q612 -662 674 -670Q736 -677 766 -694Q795 -712 795 -751V-757Q795 -820 771 -863Q747 -906 700 -930Q652 -953 581 -953Q508 -953 456 -930Q403 -908 370 -873Q338 -838 322 -800L115 -854Q153 -954 224 -1015Q295 -1076 387 -1104Q479 -1132 577 -1132Q645 -1132 721 -1116Q797 -1100 864 -1058Q931 -1016 973 -940Q1015 -864 1015 -742V0H802V-153H791Q769 -110 726 -69Q683 -28 618 -2Q552 25 461 25ZM510 -152Q600 -152 664 -187Q728 -222 762 -280Q796 -338 796 -403V-546Q784 -534 750 -524Q717 -515 674 -508Q631 -500 591 -495Q551 -490 525 -487Q463 -479 412 -460Q360 -441 330 -406Q299 -371 299 -313Q299 -260 326 -224Q354 -188 401 -170Q448 -152 510 -152Z"/><path id="g500_146" d="M618 23Q460 23 343 -49Q226 -121 161 -251Q96 -381 96 -553Q96 -727 161 -858Q226 -988 343 -1060Q460 -1132 618 -1132Q705 -1132 781 -1110Q857 -1087 918 -1044Q980 -1002 1022 -940Q1065 -879 1086 -802L877 -752Q866 -795 843 -830Q820 -866 788 -892Q755 -918 712 -932Q670 -946 619 -946Q518 -946 452 -892Q385 -839 352 -750Q320 -661 320 -553Q320 -446 352 -358Q385 -269 452 -216Q518 -163 619 -163Q671 -163 714 -178Q757 -192 791 -218Q825 -245 848 -282Q871 -320 881 -365L1089 -315Q1069 -236 1026 -174Q983 -111 922 -67Q860 -23 783 0Q706 23 618 23Z"/><path id="g500_149" d="M564 22Q428 22 322 -48Q216 -117 156 -246Q96 -376 96 -556Q96 -738 157 -867Q218 -996 324 -1064Q430 -1132 564 -1132Q668 -1132 732 -1098Q795 -1063 831 -1017Q867 -971 886 -936H898V-1490H1118V0H904V-175H886Q867 -139 830 -93Q793 -47 729 -12Q665 22 564 22ZM612 -165Q706 -165 770 -215Q835 -265 868 -354Q902 -442 902 -558Q902 -675 869 -762Q836 -848 772 -896Q707 -945 612 -945Q515 -945 450 -894Q386 -843 354 -756Q321 -668 321 -558Q321 -447 354 -358Q387 -269 452 -217Q517 -165 612 -165Z"/><path id="g500_151" d="M630 23Q465 23 345 -48Q225 -119 160 -248Q96 -377 96 -551Q96 -723 160 -854Q223 -985 339 -1058Q455 -1132 611 -1132Q707 -1132 796 -1100Q885 -1069 956 -1002Q1027 -935 1068 -828Q1110 -722 1110 -570V-492H317Q321 -391 357 -320Q396 -240 467 -200Q538 -159 632 -159Q694 -159 744 -176Q794 -194 830 -230Q867 -265 886 -317L1093 -268Q1066 -182 1002 -116Q939 -50 844 -14Q750 23 630 23ZM318 -656H892Q885 -726 862 -784Q830 -862 768 -906Q705 -950 611 -950Q518 -950 452 -905Q386 -860 352 -787Q323 -726 318 -656Z"/><path id="g500_16" d="M165 0V-1490H714Q873 -1490 977 -1438Q1081 -1386 1132 -1298Q1183 -1209 1183 -1099Q1183 -1006 1149 -942Q1115 -879 1058 -840Q1000 -802 931 -784V-769Q1006 -766 1077 -722Q1148 -677 1194 -596Q1241 -516 1241 -401Q1241 -288 1188 -197Q1134 -106 1023 -53Q912 0 738 0ZM393 -196H715Q875 -196 945 -258Q1015 -320 1015 -412Q1015 -484 980 -542Q944 -600 879 -634Q814 -669 724 -669H393ZM393 -845H692Q767 -845 828 -874Q889 -903 924 -956Q959 -1009 959 -1080Q959 -1172 895 -1234Q831 -1295 698 -1295H393Z"/><path id="g500_160" d="M702 -1118V-939H452V0H232V-939H20V-1118H232V-1246Q232 -1350 278 -1420Q325 -1490 401 -1525Q477 -1560 565 -1560Q632 -1560 680 -1549Q727 -1538 749 -1530L698 -1352Q682 -1357 658 -1362Q635 -1368 600 -1368Q522 -1368 487 -1329Q452 -1290 452 -1216V-1118Z"/><path id="g500_161" d="M615 442Q486 442 391 409Q296 376 234 321Q173 266 141 199L325 112Q345 144 378 180Q412 215 469 240Q526 265 615 265Q743 265 822 204Q902 144 902 15V-203H883Q863 -166 828 -123Q792 -80 728 -48Q665 -17 563 -17Q431 -17 326 -79Q220 -141 158 -263Q96 -385 96 -563Q96 -741 158 -868Q219 -996 326 -1064Q432 -1132 566 -1132Q669 -1132 734 -1098Q798 -1064 834 -1018Q871 -971 890 -936H906V-1118H1121V16Q1121 163 1054 258Q988 352 874 397Q759 442 615 442ZM614 -200Q708 -200 772 -244Q837 -287 870 -370Q903 -452 903 -566Q903 -679 870 -764Q837 -849 772 -897Q708 -945 614 -945Q517 -945 452 -894Q387 -844 354 -758Q321 -673 321 -566Q321 -457 354 -374Q387 -292 452 -246Q518 -200 614 -200Z"/><path id="g500_164" d="M368 -662V0H148V-1490H366V-918Q411 -1012 479 -1063Q572 -1132 704 -1132Q818 -1132 904 -1084Q989 -1036 1036 -942Q1084 -849 1084 -710V0H864V-683Q864 -804 801 -872Q738 -940 628 -940Q554 -940 495 -908Q436 -875 402 -813Q368 -751 368 -662Z"/><path id="g500_167" d="M148 0V-1118H368V0ZM259 -1289Q202 -1289 162 -1327Q121 -1365 121 -1419Q121 -1474 162 -1512Q202 -1550 259 -1550Q316 -1550 357 -1512Q398 -1474 398 -1419Q398 -1365 357 -1327Q316 -1289 259 -1289Z"/><path id="g500_179" d="M147 -1118H368V72Q369 186 328 263Q286 340 206 379Q126 418 10 418H-34V229H1Q79 229 113 188Q147 148 147 71ZM258 -1289Q201 -1289 160 -1327Q120 -1365 120 -1419Q120 -1474 160 -1512Q201 -1550 258 -1550Q315 -1550 356 -1512Q397 -1474 397 -1419Q397 -1365 356 -1327Q315 -1289 258 -1289Z"/><path id="g500_180" d="M148 0V-1490H368V-646H388L829 -1118H1093L643 -636L1124 0H852L475 -501L368 -394V0Z"/><path id="g500_183" d="M368 -1490V0H148V-1490Z"/><path id="g500_187" d="M148 0V-1118H357L362 -910Q384 -971 420 -1015Q470 -1076 537 -1106Q604 -1137 677 -1137Q799 -1137 874 -1062Q934 -1001 963 -903Q985 -962 1023 -1007Q1077 -1071 1154 -1104Q1230 -1137 1317 -1137Q1416 -1137 1496 -1094Q1577 -1051 1624 -966Q1671 -881 1671 -754V0H1451V-732Q1451 -844 1388 -894Q1326 -944 1241 -944Q1172 -944 1122 -915Q1072 -886 1045 -834Q1018 -783 1018 -716V0H801V-746Q801 -836 744 -890Q686 -944 597 -944Q536 -944 484 -916Q431 -887 400 -832Q368 -776 368 -695V0Z"/><path id="g500_190" d="M368 -662V0H148V-1118H358L360 -904Q406 -1009 479 -1063Q572 -1132 704 -1132Q818 -1132 903 -1084Q988 -1036 1036 -942Q1084 -849 1084 -710V0H864V-683Q864 -804 801 -872Q738 -940 628 -940Q554 -940 495 -908Q436 -875 402 -813Q368 -751 368 -662Z"/><path id="g500_195" d="M618 23Q461 23 344 -49Q226 -121 161 -251Q96 -381 96 -553Q96 -727 161 -858Q226 -988 344 -1060Q461 -1132 618 -1132Q776 -1132 894 -1060Q1011 -988 1076 -858Q1141 -727 1141 -553Q1141 -381 1076 -251Q1011 -121 894 -49Q776 23 618 23ZM618 -163Q720 -163 786 -216Q853 -270 886 -358Q918 -447 918 -553Q918 -660 886 -750Q853 -839 786 -892Q720 -946 618 -946Q517 -946 451 -892Q385 -839 352 -750Q320 -661 320 -553Q320 -447 352 -358Q385 -270 451 -216Q517 -163 618 -163Z"/><path id="g500_2" d="M51 0 581 -1490H861L1401 0H1154L1017 -393H431L298 0ZM950 -583 864 -829Q830 -930 790 -1067Q758 -1173 720 -1311Q682 -1171 651 -1064Q610 -925 579 -829L496 -583Z"/><path id="g500_207" d="M148 418V-1118H362V-936H380Q400 -971 436 -1017Q471 -1063 534 -1098Q598 -1132 703 -1132Q837 -1132 942 -1064Q1048 -996 1109 -867Q1170 -738 1170 -556Q1170 -376 1110 -246Q1050 -117 944 -48Q839 22 703 22Q602 22 538 -12Q473 -47 436 -93Q400 -139 380 -175H368V418ZM654 -165Q750 -165 815 -217Q880 -269 912 -358Q945 -447 945 -558Q945 -668 912 -756Q880 -843 816 -894Q751 -945 654 -945Q560 -945 495 -896Q430 -848 397 -762Q364 -675 364 -558Q364 -442 398 -354Q431 -265 496 -215Q561 -165 654 -165Z"/><path id="g500_210" d="M148 0V-1118H361V-938H373Q404 -1030 481 -1082Q558 -1134 656 -1134Q677 -1134 704 -1132Q731 -1131 749 -1128V-918Q737 -922 703 -926Q669 -930 634 -930Q558 -930 497 -898Q436 -866 402 -810Q368 -753 368 -679V0Z"/><path id="g500_213" d="M549 23Q428 23 334 -12Q239 -47 178 -116Q118 -184 98 -283L305 -326Q328 -239 391 -197Q454 -155 551 -155Q657 -155 720 -200Q783 -244 783 -306Q783 -360 744 -395Q706 -430 626 -447L438 -490Q282 -525 206 -602Q130 -679 130 -799Q130 -899 186 -974Q242 -1049 339 -1090Q436 -1132 563 -1132Q684 -1132 770 -1097Q856 -1062 910 -999Q963 -936 986 -853L789 -810Q768 -869 716 -914Q664 -958 565 -958Q474 -958 413 -917Q352 -876 352 -813Q352 -757 392 -722Q433 -688 525 -667L705 -627Q860 -592 935 -517Q1010 -442 1010 -325Q1010 -223 952 -144Q893 -66 790 -22Q686 23 549 23Z"/><path id="g500_217" d="M626 -1118V-939H403V-302Q403 -235 432 -204Q460 -172 525 -172Q542 -172 570 -176Q598 -180 618 -184L657 -8Q622 4 582 10Q542 15 503 15Q351 15 267 -64Q183 -142 183 -284V-939H20V-1118H183V-1384H403V-1118Z"/><path id="g500_220" d="M529 14Q415 14 329 -34Q243 -82 196 -176Q148 -270 148 -408V-1118H368V-435Q368 -314 432 -246Q495 -178 604 -178Q679 -178 738 -210Q796 -243 830 -306Q864 -368 864 -456V-1118H1084V0H874L873 -218Q827 -109 751 -54Q657 14 529 14Z"/><path id="g500_230" d="M468 0 46 -1118H284L505 -483Q542 -378 568 -273Q579 -230 590 -187Q600 -230 611 -273Q637 -378 673 -483L894 -1118H1130L708 0Z"/><path id="g500_233" d="M393 0 57 -1118H289L412 -655Q439 -551 470 -424Q493 -330 514 -220Q536 -326 558 -418Q589 -546 617 -655L740 -1118H960L1081 -655Q1109 -549 1140 -421Q1162 -328 1183 -221Q1204 -327 1226 -419Q1256 -547 1284 -655L1407 -1118H1641L1304 0H1083L945 -481Q924 -554 904 -634Q884 -713 865 -796Q857 -831 849 -866Q841 -831 833 -797Q813 -713 793 -632Q773 -552 752 -481L614 0Z"/><path id="g500_238" d="M57 0 439 -574 80 -1118H328L454 -914Q506 -830 546 -753Q560 -724 576 -695Q590 -724 604 -753Q640 -830 694 -914L823 -1118H1067L703 -566L1084 0H837L687 -238Q635 -321 596 -396Q582 -423 568 -449Q555 -423 542 -396Q506 -321 454 -238L302 0Z"/><path id="g500_240" d="M133 402 187 223 212 229Q269 244 314 237Q360 230 394 194Q427 159 447 87L471 5L46 -1118H284L505 -483Q542 -377 567 -272Q576 -231 586 -190Q597 -231 608 -273Q634 -378 671 -483L896 -1118H1132L646 155Q612 245 562 305Q513 365 445 396Q377 426 287 426Q235 426 194 418Q153 411 133 402Z"/><path id="g500_258" d="M661 20Q487 20 365 -70Q243 -160 178 -330Q113 -501 113 -744Q113 -986 178 -1157Q243 -1328 366 -1419Q488 -1510 661 -1510Q833 -1510 956 -1419Q1079 -1328 1144 -1157Q1209 -986 1209 -744Q1209 -502 1144 -331Q1080 -160 958 -70Q835 20 661 20ZM661 -175Q764 -175 836 -242Q908 -310 946 -437Q983 -564 983 -744Q983 -925 946 -1053Q908 -1181 836 -1248Q764 -1316 661 -1316Q558 -1316 486 -1248Q414 -1180 376 -1052Q338 -925 338 -744Q338 -564 376 -437Q414 -310 486 -242Q558 -175 661 -175Z"/><path id="g500_260" d="M144 0V-165L650 -688Q728 -770 780 -833Q832 -896 859 -954Q886 -1012 886 -1078Q886 -1153 852 -1207Q817 -1261 758 -1290Q698 -1319 622 -1319Q543 -1319 484 -1286Q425 -1254 393 -1195Q361 -1136 361 -1056H142Q142 -1192 205 -1294Q268 -1397 377 -1454Q486 -1510 626 -1510Q768 -1510 876 -1454Q983 -1398 1044 -1302Q1105 -1207 1105 -1086Q1105 -1004 1074 -926Q1044 -848 968 -750Q891 -652 752 -512L460 -207V-195H1128V0Z"/><path id="g500_264" d="M659 20Q559 20 462 -16Q364 -51 286 -132Q207 -214 160 -352Q113 -490 113 -695Q113 -889 152 -1040Q191 -1191 265 -1296Q339 -1401 443 -1456Q547 -1510 678 -1510Q810 -1510 914 -1458Q1017 -1405 1082 -1313Q1148 -1221 1164 -1102H940Q917 -1193 850 -1252Q784 -1310 678 -1310Q569 -1310 492 -1246Q414 -1182 374 -1062Q333 -943 333 -774H344Q382 -837 438 -882Q494 -928 564 -952Q635 -976 713 -976Q843 -976 948 -914Q1053 -851 1116 -740Q1178 -629 1178 -487Q1178 -344 1113 -229Q1048 -114 932 -47Q815 20 659 20ZM658 -172Q743 -172 810 -214Q877 -256 916 -326Q956 -397 956 -484Q956 -570 918 -640Q880 -709 814 -750Q747 -791 662 -791Q598 -791 544 -766Q489 -742 448 -698Q407 -655 384 -600Q361 -544 361 -482Q361 -399 400 -328Q438 -258 506 -215Q573 -172 658 -172Z"/><path id="g500_34" d="M165 0V-1490H1092V-1294H393V-815H1025V-620H393V0Z"/><path id="g500_344" d="M805 -723V-533H143V-723Z"/><path id="g500_362" d="M125 371 213 -214H450L285 371Z"/><path id="g500_363" d="M311 15Q249 15 206 -28Q163 -71 163 -132Q163 -194 206 -236Q249 -279 311 -279Q372 -279 415 -236Q458 -194 458 -132Q458 -71 415 -28Q372 15 311 15Z"/><path id="g500_51" d="M552 20Q344 20 216 -98Q89 -216 89 -433V-516H318V-432Q318 -305 382 -239Q446 -173 552 -173Q658 -173 722 -239Q786 -305 786 -432V-1490H1013V-434Q1013 -216 887 -98Q761 20 552 20Z"/><path id="g500_55" d="M165 0V-1490H393V-196H1068V0Z"/><path id="g500_58" d="M165 0V-1490H501L826 -635Q840 -597 858 -539Q875 -481 894 -413Q913 -345 930 -279Q933 -266 936 -254Q939 -265 942 -276Q959 -341 978 -409Q997 -477 1015 -537Q1033 -597 1047 -635L1367 -1490H1705V0H1478V-802Q1478 -848 1479 -912Q1480 -976 1482 -1048Q1483 -1119 1485 -1192Q1485 -1231 1486 -1268Q1474 -1225 1461 -1182Q1437 -1104 1414 -1032Q1392 -960 1372 -900Q1351 -841 1337 -802L1032 0H837L528 -802Q513 -840 494 -898Q474 -957 451 -1028Q428 -1100 404 -1178Q391 -1219 378 -1261Q379 -1231 380 -1200Q381 -1128 382 -1055Q384 -982 386 -916Q387 -851 387 -802V0Z"/><path id="g500_61" d="M165 0V-1490H428L989 -603Q1017 -559 1052 -498Q1087 -437 1126 -361Q1147 -320 1167 -275Q1164 -319 1162 -363Q1157 -446 1155 -519Q1153 -592 1153 -642V-1490H1384V0H1120L617 -793Q577 -858 538 -924Q500 -990 454 -1077Q421 -1136 379 -1214Q383 -1145 386 -1082Q391 -986 394 -912Q396 -839 396 -795V0Z"/><path id="g500_66" d="M786 20Q593 20 440 -72Q288 -163 200 -334Q113 -506 113 -744Q113 -983 200 -1154Q288 -1326 440 -1418Q593 -1510 786 -1510Q979 -1510 1130 -1418Q1282 -1326 1370 -1154Q1457 -983 1457 -744Q1457 -506 1370 -334Q1282 -163 1130 -72Q979 20 786 20ZM786 -188Q913 -188 1014 -252Q1114 -315 1172 -440Q1231 -564 1231 -744Q1231 -926 1172 -1050Q1114 -1175 1014 -1238Q913 -1302 786 -1302Q658 -1302 557 -1238Q456 -1174 398 -1050Q339 -925 339 -744Q339 -564 398 -440Q456 -316 557 -252Q658 -188 786 -188Z"/><path id="g500_84" d="M165 0V-1490H699Q871 -1490 986 -1426Q1101 -1362 1158 -1253Q1215 -1144 1215 -1006Q1215 -868 1158 -758Q1100 -649 985 -586Q870 -522 697 -522H393V0ZM393 -715H675Q785 -715 853 -753Q921 -791 952 -857Q984 -923 984 -1006Q984 -1090 952 -1156Q921 -1221 852 -1258Q784 -1295 673 -1295H393Z"/><path id="g500_86" d="M786 20Q593 20 440 -72Q288 -163 200 -334Q113 -506 113 -744Q113 -983 200 -1154Q288 -1326 440 -1418Q593 -1510 786 -1510Q979 -1510 1130 -1418Q1282 -1326 1370 -1154Q1457 -983 1457 -744Q1457 -506 1370 -335Q1305 -209 1207 -126L1406 135H1179L1052 -31Q931 20 786 20ZM713 -481H932L1073 -298Q1133 -354 1173 -440Q1231 -564 1231 -744Q1231 -926 1172 -1050Q1114 -1175 1014 -1238Q913 -1302 786 -1302Q658 -1302 557 -1238Q456 -1174 398 -1050Q339 -925 339 -744Q339 -564 398 -440Q456 -316 557 -252Q658 -188 786 -188Q858 -188 921 -208Z"/><path id="g500_87" d="M165 0V-1490H699Q871 -1490 986 -1430Q1101 -1371 1158 -1265Q1215 -1159 1215 -1022Q1215 -884 1158 -780Q1100 -677 985 -620Q965 -610 943 -602L1271 0H1012L710 -563Q704 -563 697 -563H393V0ZM393 -758H675Q785 -758 852 -790Q920 -821 952 -880Q984 -939 984 -1022Q984 -1106 952 -1167Q920 -1228 852 -1262Q784 -1295 673 -1295H393Z"/><path id="g500_90" d="M665 25Q498 25 375 -28Q252 -81 182 -180Q113 -278 106 -414H335Q342 -333 388 -280Q433 -227 506 -201Q579 -175 664 -175Q759 -175 832 -204Q906 -234 949 -288Q992 -343 992 -415Q992 -480 954 -522Q917 -563 854 -590Q790 -618 709 -639L535 -687Q352 -736 250 -832Q147 -928 147 -1081Q147 -1210 216 -1306Q286 -1403 406 -1456Q525 -1510 675 -1510Q828 -1510 944 -1456Q1061 -1403 1128 -1310Q1194 -1217 1197 -1098H975Q964 -1200 880 -1256Q797 -1312 670 -1312Q580 -1312 514 -1284Q447 -1256 410 -1206Q374 -1157 374 -1094Q374 -1023 418 -980Q461 -936 524 -910Q586 -885 643 -870L788 -832Q859 -814 934 -784Q1010 -753 1074 -704Q1138 -656 1178 -584Q1217 -513 1217 -412Q1217 -286 1152 -187Q1087 -88 964 -32Q840 25 665 25Z"/><path id="g500_93" d="M90 -1294V-1490H1247V-1294H784V0H555V-1294Z"/><path id="g700_146" d="M628 22Q459 22 336 -50Q214 -123 148 -252Q81 -382 81 -554Q81 -728 148 -858Q214 -987 336 -1060Q459 -1132 628 -1132Q727 -1132 811 -1106Q895 -1080 960 -1032Q1025 -984 1067 -915Q1109 -846 1125 -760L846 -708Q837 -752 818 -786Q799 -821 772 -846Q745 -870 710 -883Q674 -896 631 -896Q551 -896 496 -853Q442 -810 414 -733Q387 -656 387 -555Q387 -456 414 -379Q442 -302 496 -258Q551 -214 631 -214Q674 -214 710 -228Q746 -241 774 -266Q802 -292 821 -328Q840 -364 848 -409L1127 -358Q1111 -269 1069 -200Q1027 -130 962 -80Q897 -30 812 -4Q728 22 628 22Z"/><path id="g700_149" d="M536 19Q408 19 304 -48Q201 -114 141 -242Q81 -371 81 -557Q81 -748 143 -876Q205 -1004 308 -1068Q411 -1132 535 -1132Q630 -1132 693 -1100Q756 -1068 795 -1021Q834 -974 853 -930H863V-1490H1163V0H868V-179H853Q833 -134 794 -88Q754 -43 691 -12Q628 19 536 19ZM629 -222Q705 -222 759 -264Q813 -306 841 -382Q869 -457 869 -558Q869 -660 842 -734Q814 -809 760 -850Q706 -892 629 -892Q550 -892 496 -849Q443 -806 416 -731Q389 -656 389 -558Q389 -460 416 -384Q444 -308 498 -265Q551 -222 629 -222Z"/><path id="g700_151" d="M633 22Q462 22 338 -48Q214 -118 148 -247Q81 -376 81 -553Q81 -726 147 -856Q213 -986 334 -1059Q455 -1132 618 -1132Q728 -1132 823 -1097Q918 -1062 990 -992Q1062 -921 1102 -815Q1143 -709 1143 -565V-481H378Q381 -396 411 -336Q443 -270 502 -237Q560 -204 638 -204Q691 -204 734 -219Q777 -234 808 -264Q838 -293 854 -336L1126 -285Q1099 -193 1032 -124Q965 -54 864 -16Q764 22 633 22ZM380 -669H854Q848 -725 830 -771Q803 -835 750 -870Q698 -906 621 -906Q543 -906 488 -870Q434 -834 406 -773Q385 -726 380 -669Z"/><path id="g700_167" d="M128 0V-1118H428V0ZM278 -1264Q210 -1264 162 -1309Q114 -1354 114 -1418Q114 -1482 162 -1527Q210 -1572 278 -1572Q346 -1572 394 -1528Q443 -1483 443 -1418Q443 -1354 394 -1309Q346 -1264 278 -1264Z"/><path id="g700_18" d="M786 20Q588 20 432 -70Q275 -160 184 -331Q94 -502 94 -744Q94 -987 185 -1158Q276 -1330 433 -1420Q590 -1510 786 -1510Q913 -1510 1022 -1474Q1132 -1439 1217 -1371Q1302 -1303 1356 -1204Q1410 -1106 1427 -980H1118Q1108 -1042 1080 -1090Q1051 -1137 1008 -1170Q966 -1204 911 -1222Q856 -1239 792 -1239Q676 -1239 588 -1181Q501 -1123 452 -1012Q404 -902 404 -744Q404 -583 453 -473Q502 -363 589 -307Q676 -251 791 -251Q855 -251 910 -268Q964 -286 1008 -320Q1051 -353 1080 -401Q1108 -449 1119 -510H1428Q1416 -406 1366 -311Q1317 -216 1235 -141Q1153 -66 1040 -23Q927 20 786 20Z"/><path id="g700_190" d="M428 -647V0H128V-1118H411L415 -887Q458 -993 532 -1056Q621 -1132 763 -1132Q879 -1132 966 -1082Q1052 -1031 1100 -936Q1147 -842 1147 -711V0H847V-659Q847 -763 794 -822Q740 -881 645 -881Q582 -881 532 -854Q483 -826 456 -774Q428 -722 428 -647Z"/><path id="g700_195" d="M628 22Q460 22 337 -50Q214 -123 148 -252Q81 -382 81 -554Q81 -728 148 -858Q214 -987 337 -1060Q460 -1132 628 -1132Q797 -1132 920 -1060Q1042 -987 1108 -858Q1175 -728 1175 -554Q1175 -382 1108 -252Q1042 -123 920 -50Q797 22 628 22ZM628 -214Q708 -214 762 -258Q816 -303 843 -380Q870 -458 870 -555Q870 -654 843 -731Q816 -808 762 -852Q708 -896 628 -896Q548 -896 494 -852Q441 -808 414 -731Q387 -654 387 -555Q387 -458 414 -380Q441 -303 494 -258Q548 -214 628 -214Z"/><path id="g700_210" d="M128 0V-1118H418V-923H430Q461 -1027 534 -1080Q606 -1133 700 -1133Q723 -1133 750 -1130Q777 -1128 797 -1123V-855Q777 -862 739 -866Q701 -870 667 -870Q599 -870 544 -840Q489 -811 458 -758Q428 -706 428 -636V0Z"/><path id="g700_217" d="M683 -1118V-889H474V-327Q474 -274 498 -248Q521 -223 576 -223Q593 -223 624 -228Q655 -232 671 -236L714 -11Q664 4 614 10Q565 16 520 16Q352 16 263 -66Q174 -148 174 -301V-889H20V-1118H174V-1384H474V-1118Z"/><path id="g700_220" d="M513 14Q397 14 310 -36Q223 -87 176 -182Q128 -276 128 -407V-1118H428V-459Q428 -355 482 -296Q536 -237 630 -237Q694 -237 743 -264Q792 -292 820 -344Q847 -397 847 -471V-1118H1148V0H864L861 -233Q818 -125 743 -62Q652 14 513 14Z"/><path id="g700_233" d="M361 0 31 -1118H346L443 -705Q468 -594 497 -464Q517 -375 534 -275Q552 -373 573 -461Q604 -592 631 -705L733 -1118H1009L1109 -705Q1134 -592 1165 -462Q1186 -373 1205 -274Q1222 -373 1241 -461Q1268 -591 1294 -705L1391 -1118H1710L1378 0H1073L949 -431Q931 -496 913 -574Q895 -653 878 -735Q874 -754 870 -773Q866 -754 862 -735Q844 -653 826 -574Q808 -495 790 -431L666 0Z"/><path id="g700_368" d="M342 -535Q269 -535 219 -584Q169 -634 169 -707Q169 -780 219 -830Q269 -879 342 -879Q415 -879 465 -830Q515 -780 515 -707Q515 -634 465 -584Q415 -535 342 -535Z"/><path id="g700_55" d="M135 0V-1490H440V-253H1083V0Z"/><path id="g700_61" d="M135 0V-1490H475L946 -736Q982 -678 1019 -610Q1056 -542 1095 -459Q1114 -418 1132 -372Q1130 -410 1128 -449Q1122 -543 1118 -629Q1114 -715 1114 -775V-1490H1426V0H1085L657 -684Q610 -761 570 -834Q530 -906 487 -994Q460 -1047 427 -1114Q431 -1053 434 -996Q440 -897 444 -816Q447 -736 447 -685V0Z"/><path id="g700_84" d="M135 0V-1490H716Q886 -1490 1005 -1426Q1124 -1361 1186 -1248Q1249 -1134 1249 -987Q1249 -839 1186 -726Q1122 -614 1002 -550Q881 -487 709 -487H440V0ZM440 -733H660Q754 -733 814 -766Q875 -798 904 -855Q934 -912 934 -987Q934 -1062 904 -1118Q875 -1175 814 -1206Q753 -1238 659 -1238H440Z"/><path id="g800_23" d="M116 0V-1490H1150V-1202H469V-894H1096V-612H469V-288H1149V0Z"/><path id="g800_61" d="M116 0V-1490H504L920 -817Q960 -750 998 -678Q1037 -607 1075 -520Q1093 -479 1111 -432Q1109 -466 1107 -502Q1100 -602 1095 -696Q1090 -791 1090 -856V-1490H1452V0H1063L682 -617Q631 -702 590 -778Q548 -854 507 -943Q484 -992 457 -1050Q460 -996 464 -944Q470 -842 474 -758Q478 -673 478 -617V0Z"/><path id="g800_66" d="M792 20Q591 20 430 -69Q270 -158 176 -329Q82 -500 82 -744Q82 -990 176 -1161Q270 -1332 430 -1421Q591 -1510 792 -1510Q992 -1510 1152 -1421Q1313 -1332 1406 -1161Q1500 -990 1500 -744Q1500 -499 1406 -328Q1313 -157 1152 -68Q992 20 792 20ZM792 -290Q900 -290 978 -342Q1056 -394 1098 -496Q1140 -597 1140 -744Q1140 -892 1098 -994Q1056 -1096 978 -1148Q900 -1200 792 -1200Q683 -1200 605 -1148Q527 -1095 485 -994Q443 -892 443 -744Q443 -597 485 -496Q527 -395 605 -342Q683 -290 792 -290Z"/><path id="g800_84" d="M116 0V-1490H726Q894 -1490 1016 -1425Q1138 -1360 1204 -1244Q1269 -1128 1269 -975Q1269 -821 1202 -707Q1135 -593 1011 -529Q887 -465 716 -465H469V0ZM469 -744H652Q735 -744 791 -773Q847 -802 875 -854Q903 -906 903 -975Q903 -1045 875 -1096Q847 -1148 790 -1176Q734 -1204 651 -1204H469Z"/><path id="g800_90" d="M691 20Q505 20 367 -36Q229 -92 152 -206Q75 -320 72 -492H411Q416 -420 450 -371Q485 -322 546 -298Q606 -273 687 -273Q760 -273 813 -293Q866 -313 894 -349Q923 -385 923 -433Q923 -476 896 -506Q870 -536 817 -559Q764 -582 682 -600L524 -637Q331 -681 221 -781Q111 -881 111 -1049Q111 -1187 186 -1291Q261 -1395 392 -1452Q522 -1510 691 -1510Q864 -1510 991 -1452Q1118 -1393 1188 -1288Q1258 -1184 1260 -1046H921Q914 -1127 855 -1172Q796 -1217 690 -1217Q620 -1217 572 -1198Q524 -1180 500 -1148Q476 -1115 476 -1073Q476 -1027 503 -996Q530 -964 580 -943Q630 -922 696 -907L825 -877Q933 -854 1018 -814Q1102 -775 1160 -720Q1219 -665 1250 -593Q1280 -521 1280 -432Q1280 -291 1210 -190Q1139 -88 1008 -34Q876 20 691 20Z"/><path id="g800_93" d="M66 -1202V-1490H1320V-1202H869V0H517V-1202Z"/></defs><rect x=".5" y=".5" width="579" height="299" rx="16" fill="#F6F8FC" stroke="#DCE3EE"/><path d="M14,30V14H30 M550,14H566V30 M566,270V286H550 M30,286H14V270" fill="none" stroke="#0891B2" stroke-width="2" stroke-linecap="round" stroke-linejoin="round"/><g transform="translate(32 50) scale(0.00561523)" fill="#0891B2"><use href="#g700_84" x="0"/><use href="#g700_195" x="1392"/><use href="#g700_233" x="2702"/><use href="#g700_151" x="4497"/><use href="#g700_210" x="5799"/><use href="#g700_61" x="6747"/><use href="#g700_151" x="8390"/><use href="#g700_217" x="9691"/><use href="#g700_55" x="11090"/><use href="#g700_55" x="12330"/><use href="#g700_18" x="13512"/><use href="#g700_368" x="15676"/><use href="#g700_84" x="17009"/><use href="#g700_210" x="18418"/><use href="#g700_195" x="19284"/><use href="#g700_149" x="20622"/><use href="#g700_220" x="21994"/><use href="#g700_146" x="23351"/><use href="#g700_217" x="24638"/><use href="#g700_167" x="25470"/><use href="#g700_195" x="26107"/><use href="#g700_190" x="27445"/></g><g transform="translate(517.91 50) scale(0.00585938)" fill="#55627A"><use href="#g500_260" x="0"/><use href="#g500_258" x="1262"/><use href="#g500_260" x="2584"/><use href="#g500_264" x="3846"/></g><g transform="translate(32 92) scale(0.0146484)" fill="#0B1020"><use href="#g800_61" x="0"/><use href="#g800_23" x="1527"/><use href="#g800_93" x="2735"/><use href="#g800_84" x="4080"/><use href="#g800_66" x="5374"/><use href="#g800_90" x="6916"/></g><g transform="translate(32 122) scale(0.00756836)" fill="#55627A"><use href="#g400_18" x="0"/><use href="#g400_183" x="1496"/><use href="#g400_195" x="1992"/><use href="#g400_220" x="3220"/><use href="#g400_149" x="4431"/><use href="#g400_84" x="6261"/><use href="#g400_66" x="7569"/><use href="#g400_90" x="9135"/><use href="#g400_160" x="11025"/><use href="#g400_195" x="11723"/><use href="#g400_210" x="12951"/><use href="#g400_146" x="14298"/><use href="#g400_130" x="15488"/><use href="#g400_160" x="16638"/><use href="#g400_151" x="17336"/><use href="#g400_213" x="18530"/><use href="#g400_362" x="19611"/><use href="#g400_210" x="20777"/><use href="#g400_151" x="21514"/><use href="#g400_213" x="22708"/><use href="#g400_217" x="23789"/><use href="#g400_130" x="24469"/><use href="#g400_220" x="25619"/><use href="#g400_210" x="26830"/><use href="#g400_130" x="27601"/><use href="#g400_190" x="28751"/><use href="#g400_217" x="29961"/><use href="#g400_213" x="30611"/><use href="#g400_130" x="32268"/><use href="#g400_190" x="33418"/><use href="#g400_149" x="34628"/><use href="#g400_213" x="36458"/><use href="#g400_164" x="37539"/><use href="#g400_195" x="38750"/><use href="#g400_207" x="39978"/><use href="#g400_213" x="41232"/><use href="#g400_233" x="42889"/><use href="#g400_167" x="44565"/><use href="#g400_217" x="45061"/><use href="#g400_164" x="45731"/><use href="#g400_130" x="47518"/><use href="#g400_190" x="48668"/><use href="#g400_195" x="50454"/><use href="#g400_160" x="51682"/><use href="#g400_160" x="52360"/><use href="#g400_183" x="53118"/><use href="#g400_167" x="53614"/><use href="#g400_190" x="54110"/><use href="#g400_151" x="55320"/><use href="#g400_344" x="56514"/><use href="#g400_160" x="57456"/><use href="#g400_167" x="58214"/><use href="#g400_210" x="58710"/><use href="#g400_213" x="59481"/><use href="#g400_217" x="60562"/></g><g transform="translate(32 143) scale(0.00756836)" fill="#55627A"><use href="#g400_217" x="0"/><use href="#g400_151" x="650"/><use href="#g400_210" x="1844"/><use href="#g400_187" x="2647"/><use href="#g400_167" x="4441"/><use href="#g400_190" x="4937"/><use href="#g400_130" x="6147"/><use href="#g400_183" x="7297"/></g><rect x="32" y="177" width="8" height="8" rx="2" fill="#1D4ED8"/><g transform="translate(50 186) scale(0.00683594)" fill="#0B1020"><use href="#g500_66" x="0"/><use href="#g500_160" x="1570"/><use href="#g500_160" x="2265"/><use href="#g500_183" x="3042"/><use href="#g500_167" x="3558"/><use href="#g500_190" x="4074"/><use href="#g500_151" x="5306"/><use href="#g500_344" x="6509"/><use href="#g500_160" x="7456"/><use href="#g500_167" x="8239"/><use href="#g500_210" x="8755"/><use href="#g500_213" x="9547"/><use href="#g500_217" x="10650"/><use href="#g500_84" x="11893"/><use href="#g500_112" x="13207"/><use href="#g500_2" x="15135"/><use href="#g500_233" x="17133"/><use href="#g500_167" x="18831"/><use href="#g500_217" x="19347"/><use href="#g500_164" x="20046"/><use href="#g500_167" x="21824"/><use href="#g500_149" x="22340"/><use href="#g500_151" x="23606"/><use href="#g500_187" x="24809"/><use href="#g500_207" x="26628"/><use href="#g500_195" x="27894"/><use href="#g500_217" x="29131"/><use href="#g500_151" x="29808"/><use href="#g500_190" x="31011"/><use href="#g500_217" x="32243"/><use href="#g500_213" x="33486"/><use href="#g500_240" x="34589"/><use href="#g500_190" x="35767"/><use href="#g500_146" x="36999"/></g><rect x="32" y="199" width="8" height="8" rx="2" fill="#1D4ED8"/><g transform="translate(50 208) scale(0.00683594)" fill="#0B1020"><use href="#g500_84" x="0"/><use href="#g500_195" x="1301"/><use href="#g500_213" x="2538"/><use href="#g500_217" x="3641"/><use href="#g500_161" x="4318"/><use href="#g500_210" x="5587"/><use href="#g500_151" x="6340"/><use href="#g500_90" x="7543"/><use href="#g500_86" x="8866"/><use href="#g500_55" x="10440"/><use href="#g500_210" x="12144"/><use href="#g500_195" x="12897"/><use href="#g500_233" x="14100"/><use href="#g500_344" x="15798"/><use href="#g500_183" x="16745"/><use href="#g500_151" x="17261"/><use href="#g500_230" x="18425"/><use href="#g500_151" x="19563"/><use href="#g500_183" x="20766"/><use href="#g500_213" x="21828"/><use href="#g500_151" x="22931"/><use href="#g500_146" x="24134"/><use href="#g500_220" x="25316"/><use href="#g500_210" x="26548"/><use href="#g500_167" x="27356"/><use href="#g500_217" x="27872"/><use href="#g500_240" x="28611"/></g><rect x="32" y="221" width="8" height="8" rx="2" fill="#1D4ED8"/><g transform="translate(50 230) scale(0.00683594)" fill="#0B1020"><use href="#g500_2" x="0"/><use href="#g500_210" x="1452"/><use href="#g500_161" x="2205"/><use href="#g500_195" x="3474"/><use href="#g500_190" x="4711"/><use href="#g500_260" x="5943"/><use href="#g500_167" x="7205"/><use href="#g500_149" x="7721"/><use href="#g500_362" x="8987"/><use href="#g500_93" x="10133"/><use href="#g500_66" x="11408"/><use href="#g500_93" x="12916"/><use href="#g500_84" x="14253"/><use href="#g500_58" x="16113"/><use href="#g500_34" x="17982"/><use href="#g500_2" x="19003"/><use href="#g500_362" x="20455"/><use href="#g500_217" x="21601"/><use href="#g500_195" x="22278"/><use href="#g500_180" x="23515"/><use href="#g500_151" x="24614"/><use href="#g500_190" x="25817"/><use href="#g500_210" x="27595"/><use href="#g500_195" x="28348"/><use href="#g500_217" x="29585"/><use href="#g500_130" x="30292"/><use href="#g500_217" x="31455"/><use href="#g500_167" x="32152"/><use href="#g500_195" x="32668"/><use href="#g500_190" x="33905"/></g><rect x="32.00" y="242" width="59.33" height="26" rx="13.0" fill="#FFFFFF" stroke="#DCE3EE"/><g transform="translate(41 259.32) scale(0.00585938)" fill="#0B1020"><use href="#g500_61" x="0"/><use href="#g500_151" x="1549"/><use href="#g500_213" x="2752"/><use href="#g500_217" x="3855"/><use href="#g500_51" x="4552"/><use href="#g500_90" x="5730"/></g><rect x="99.33" y="242" width="57.39" height="26" rx="13.0" fill="#FFFFFF" stroke="#DCE3EE"/><g transform="translate(108.33 259.32) scale(0.00585938)" fill="#0B1020"><use href="#g500_84" x="0"/><use href="#g500_210" x="1314"/><use href="#g500_167" x="2122"/><use href="#g500_213" x="2638"/><use href="#g500_187" x="3741"/><use href="#g500_130" x="5560"/></g><rect x="164.72" y="242" width="85.96" height="26" rx="13.0" fill="#FFFFFF" stroke="#DCE3EE"/><g transform="translate(173.72 259.32) scale(0.00585938)" fill="#0B1020"><use href="#g500_84" x="0"/><use href="#g500_195" x="1301"/><use href="#g500_213" x="2538"/><use href="#g500_217" x="3641"/><use href="#g500_161" x="4318"/><use href="#g500_210" x="5587"/><use href="#g500_151" x="6340"/><use href="#g500_90" x="7543"/><use href="#g500_86" x="8866"/><use href="#g500_55" x="10440"/></g><rect x="258.68" y="242" width="49.56" height="26" rx="13.0" fill="#FFFFFF" stroke="#DCE3EE"/><g transform="translate(267.68 259.32) scale(0.00585938)" fill="#0B1020"><use href="#g500_87" x="0"/><use href="#g500_151" x="1299"/><use href="#g500_149" x="2502"/><use href="#g500_167" x="3768"/><use href="#g500_213" x="4284"/></g><rect x="316.24" y="242" width="57.97" height="26" rx="13.0" fill="#FFFFFF" stroke="#DCE3EE"/><g transform="translate(325.24 259.32) scale(0.00585938)" fill="#0B1020"><use href="#g500_61" x="0"/><use href="#g500_151" x="1549"/><use href="#g500_238" x="2708"/><use href="#g500_217" x="3885"/><use href="#g500_363" x="4582"/><use href="#g500_179" x="5203"/><use href="#g500_213" x="5719"/></g><rect x="382.21" y="242" width="59.32" height="26" rx="13.0" fill="#FFFFFF" stroke="#DCE3EE"/><g transform="translate(391.21 259.32) scale(0.00585938)" fill="#0B1020"><use href="#g500_16" x="0"/><use href="#g500_220" x="1345"/><use href="#g500_183" x="2577"/><use href="#g500_183" x="3093"/><use href="#g500_58" x="3609"/><use href="#g500_86" x="5478"/></g></svg>